<svg width="48" height="48" viewBox="0 0 48 48" fill="none" xmlns="http://www.w3.org/2000/svg">
<rect width="48" height="48" rx="24" fill="#0F1114"/>
<path d="M27.3974 20.6464C26.6231 20.8496 25.8003 20.5822 25.2934 19.9625L18.3948 11.5415H16.5739L19.0805 22.1307C19.2645 22.9101 18.9781 23.726 18.348 24.219L9 31.5134L9.76034 32.6643L21.773 29.8208C22.5524 29.6368 23.3683 29.9232 23.8613 30.5534L31.6244 40.5003H33.2249L30.0585 28.4043C29.8554 27.6301 30.1228 26.8073 30.7425 26.3004L40.1721 18.5772L39.4864 17.4836L27.3991 20.6482L27.3974 20.6464ZM27.3106 24.955C26.9009 25.2918 26.7238 25.8351 26.8575 26.349L28.2705 31.746C28.2983 31.8536 28.1594 31.923 28.09 31.8345L24.4463 27.1666C24.1199 26.7482 23.5801 26.559 23.0645 26.6805L17.6276 27.9669C17.5199 27.9929 17.454 27.854 17.5408 27.7863L21.7261 24.5193C22.1444 24.1929 22.3337 23.6531 22.2121 23.1375L21.0647 18.2908C21.0404 18.1849 21.1741 18.1189 21.2435 18.2023L24.6147 22.3181C24.9514 22.7278 25.4948 22.9049 26.0086 22.7712L31.3831 21.3651C31.4889 21.3373 31.5584 21.4745 31.4733 21.5439L27.3088 24.955H27.3106Z" fill="url(#paint0_linear_1613_18402)"/>
<path d="M22.808 10.7236C23.2819 10.7236 23.6725 10.5674 23.9832 10.2567C24.2939 9.94592 24.4502 9.56055 24.4502 9.10053C24.4502 8.66828 24.2939 8.29679 23.9832 7.98606C23.6725 7.66144 23.2802 7.5 22.808 7.5C22.3358 7.5 21.9556 7.66144 21.631 7.98606C21.3203 8.29679 21.1641 8.66828 21.1641 9.10053C21.1641 9.53277 21.3203 9.93204 21.631 10.2567C21.9556 10.5674 22.348 10.7236 22.808 10.7236Z" fill="url(#paint1_linear_1613_18402)"/>
<defs>
<linearGradient id="paint0_linear_1613_18402" x1="38.5455" y1="56.1878" x2="21.5091" y2="18.1814" gradientUnits="userSpaceOnUse">
<stop stop-color="white"/>
<stop offset="1" stop-color="#FF3030"/>
</linearGradient>
<linearGradient id="paint1_linear_1613_18402" x1="43.0125" y1="54.1843" x2="25.9743" y2="16.1779" gradientUnits="userSpaceOnUse">
<stop stop-color="white"/>
<stop offset="1" stop-color="#FF3030"/>
</linearGradient>
</defs>
</svg>
