<svg width="49" height="48" viewBox="0 0 49 48" fill="none" xmlns="http://www.w3.org/2000/svg">
<path d="M0.5 24C0.5 10.7452 11.2452 0 24.5 0C37.7548 0 48.5 10.7452 48.5 24C48.5 37.2548 37.7548 48 24.5 48C11.2452 48 0.5 37.2548 0.5 24Z" fill="#353B45"/>
<path d="M24.8 17.7C24.5167 17.4167 24.4333 17.1 24.55 16.75C24.6667 16.4 24.8917 16.1667 25.225 16.05C25.575 15.9167 25.9 16 26.2 16.3L33.2 23.275C33.4167 23.4917 33.525 23.7333 33.525 24C33.525 24.2667 33.4167 24.5083 33.2 24.725L26.2 31.7C25.9167 31.9833 25.6 32.0667 25.25 31.95C24.9 31.8333 24.6583 31.6083 24.525 31.275C24.4083 30.925 24.5 30.6 24.8 30.3L31.075 24L24.8 17.7ZM32.5 23V25H16.5C16.0833 25 15.7917 24.8333 15.625 24.5C15.475 24.1667 15.475 23.8333 15.625 23.5C15.7917 23.1667 16.0833 23 16.5 23H32.5Z" fill="#A9B4C6"/>
</svg>
