<svg width="25" height="25" viewBox="0 0 25 25" fill="none" xmlns="http://www.w3.org/2000/svg">
<path d="M12.5 22.5C10.7 22.5 9.03333 22.05 7.5 21.15C5.96667 20.25 4.75 19.0333 3.85 17.5C2.95 15.9667 2.5 14.3 2.5 12.5C2.5 10.7 2.95 9.03333 3.85 7.5C4.75 5.95 5.96667 4.73333 7.5 3.85C9.03333 2.95 10.7 2.5 12.5 2.5C14.3 2.5 15.9667 2.95 17.5 3.85C19.05 4.73333 20.2667 5.95 21.15 7.5C22.05 9.03333 22.5 10.7 22.5 12.5C22.5 14.3 22.05 15.9667 21.15 17.5C20.2667 19.0333 19.05 20.25 17.5 21.15C15.9667 22.05 14.3 22.5 12.5 22.5ZM12.5 20.5C13.9833 20.5 15.3333 20.15 16.55 19.45C17.7833 18.75 18.75 17.7917 19.45 16.575C20.15 15.3417 20.5 13.9833 20.5 12.5C20.5 11.0167 20.15 9.66667 19.45 8.45C18.75 7.21667 17.7833 6.25 16.55 5.55C15.3333 4.85 13.9833 4.5 12.5 4.5C11.0167 4.5 9.65833 4.85 8.425 5.55C7.20833 6.25 6.25 7.21667 5.55 8.45C4.85 9.66667 4.5 11.0167 4.5 12.5C4.5 13.9833 4.85 15.3417 5.55 16.575C6.25 17.7917 7.20833 18.75 8.425 19.45C9.65833 20.15 11.0167 20.5 12.5 20.5Z" fill="#D8DFE9"/>
</svg>
