<svg width="25" height="25" viewBox="0 0 25 25" fill="none" xmlns="http://www.w3.org/2000/svg">
<path d="M6.2 20.2C5.91667 20.4833 5.6 20.5667 5.25 20.45C4.9 20.3333 4.65833 20.1083 4.525 19.775C4.40833 19.425 4.5 19.1 4.8 18.8L18.8 4.8C19.0833 4.51667 19.4 4.43333 19.75 4.55C20.1 4.66667 20.3333 4.9 20.45 5.25C20.5833 5.58333 20.5 5.9 20.2 6.2L6.2 20.2ZM4.8 6.2C4.5 5.9 4.40833 5.58333 4.525 5.25C4.64167 4.9 4.875 4.66667 5.225 4.55C5.59167 4.43333 5.91667 4.51667 6.2 4.8L20.2 18.8C20.4833 19.0833 20.5667 19.4 20.45 19.75C20.3333 20.1 20.1 20.3417 19.75 20.475C19.4167 20.5917 19.1 20.5 18.8 20.2L4.8 6.2Z" fill="#626B7F"/>
</svg>
