<svg width="28" height="28" viewBox="0 0 28 28" fill="none" xmlns="http://www.w3.org/2000/svg">
<path d="M27.1515 21.1556C27.1515 22.2366 26.875 23.2422 26.3219 24.1724C25.7939 25.1026 25.0649 25.8442 24.1347 26.3973C23.2045 26.9253 22.1989 27.1892 21.1178 27.1892H6.03367C4.95264 27.1892 3.94703 26.9253 3.01683 26.3973C2.08664 25.8442 1.34501 25.1026 0.791919 24.1724C0.263973 23.2422 0 22.2366 0 21.1556V19.6471C0 19.0186 0.251403 18.5912 0.754209 18.365C1.25701 18.1136 1.75982 18.1136 2.26263 18.365C2.76543 18.5912 3.01683 19.0186 3.01683 19.6471V21.1556C3.01683 22.0857 3.28081 22.8274 3.80875 23.3805C4.36184 23.9084 5.10348 24.1724 6.03367 24.1724H21.1178C22.048 24.1724 22.7771 23.9084 23.305 23.3805C23.8581 22.8274 24.1347 22.0857 24.1347 21.1556V19.6471C24.1347 19.1695 24.2855 18.8049 24.5872 18.5535C24.8889 18.3021 25.2409 18.1764 25.6431 18.1764C26.0453 18.1764 26.3973 18.3021 26.699 18.5535C27.0007 18.8049 27.1515 19.1695 27.1515 19.6471V21.1556ZM8.59798 8.63569C8.1706 9.06307 7.68036 9.18878 7.12727 9.01279C6.59933 8.83681 6.24736 8.49742 6.07138 7.99461C5.8954 7.46667 6.03367 6.97643 6.48619 6.5239L12.4822 0.490235C12.809 0.163412 13.1735 0 13.5758 0C13.978 0 14.3425 0.163412 14.6694 0.490235L20.6653 6.5239C21.0927 6.95129 21.2184 7.44153 21.0424 7.99461C20.8664 8.52256 20.5145 8.87452 19.9865 9.0505C19.4837 9.22649 19.0061 9.08821 18.5535 8.63569L13.5758 3.69562L8.59798 8.63569ZM12.0673 1.54613H15.0842V19.6471C15.0842 20.2756 14.8328 20.7156 14.33 20.967C13.8272 21.1933 13.3244 21.1933 12.8215 20.967C12.3187 20.7156 12.0673 20.2756 12.0673 19.6471V1.54613Z" fill="#A9B4C6"/>
</svg>
