<svg width="308" height="200" viewBox="0 0 308 200" fill="none" xmlns="http://www.w3.org/2000/svg">
<path d="M0 8C0 3.58173 3.58172 0 8 0H130.204C132.606 0 134.881 1.0798 136.401 2.94099L151.599 21.559C153.119 23.4202 155.394 24.5 157.796 24.5H300C304.418 24.5 308 28.0817 308 32.5V192C308 196.418 304.418 200 300 200H8C3.58172 200 0 196.418 0 192V8Z" fill="#1D2025"/>
<path d="M0 8C0 3.58173 3.58172 0 8 0H130.204C132.606 0 134.881 1.0798 136.401 2.94099L151.599 21.559C153.119 23.4202 155.394 24.5 157.796 24.5H300C304.418 24.5 308 28.0817 308 32.5V192C308 196.418 304.418 200 300 200H8C3.58172 200 0 196.418 0 192V8Z" fill="url(#paint0_linear_1613_17991)" fill-opacity="0.15"/>
<path d="M8 0.5H130.203C132.456 0.5 134.589 1.51204 136.014 3.25684L151.212 21.875C152.826 23.8525 155.244 25 157.797 25H300C304.142 25 307.5 28.3579 307.5 32.5V192C307.5 196.142 304.142 199.5 300 199.5H8C3.85787 199.5 0.5 196.142 0.5 192V8C0.500002 3.85787 3.85787 0.5 8 0.5Z" stroke="url(#paint1_linear_1613_17991)" stroke-opacity="0.6"/>
<defs>
<linearGradient id="paint0_linear_1613_17991" x1="265" y1="200" x2="1.50002" y2="3.49995" gradientUnits="userSpaceOnUse">
<stop stop-color="#FF5252"/>
<stop offset="0.323767" stop-color="#1D2025"/>
</linearGradient>
<linearGradient id="paint1_linear_1613_17991" x1="154" y1="0" x2="154" y2="200" gradientUnits="userSpaceOnUse">
<stop stop-color="#808A9D"/>
<stop offset="1" stop-color="#282C34"/>
</linearGradient>
</defs>
</svg>
