<svg width="24" height="24" viewBox="0 0 24 24" fill="none" xmlns="http://www.w3.org/2000/svg">
<path d="M21 17L17.707 13.707C17.5195 13.5195 17.2652 13.4142 17 13.4142C16.7348 13.4142 16.4805 13.5195 16.293 13.707L15.707 14.293C15.5195 14.4805 15.2652 14.5858 15 14.5858C14.7348 14.5858 14.4805 14.4805 14.293 14.293L11.414 11.414C11.0389 11.0391 10.5303 10.8284 10 10.8284C9.46967 10.8284 8.96106 11.0391 8.586 11.414L3 17M21 5V19C21 19.2652 20.8946 19.5196 20.7071 19.7071C20.5196 19.8946 20.2652 20 20 20H4C3.73478 20 3.48043 19.8946 3.29289 19.7071C3.10536 19.5196 3 19.2652 3 19V5C3 4.73478 3.10536 4.48043 3.29289 4.29289C3.48043 4.10536 3.73478 4 4 4H20C20.2652 4 20.5196 4.10536 20.7071 4.29289C20.8946 4.48043 21 4.73478 21 5ZM16 8C16 8.26522 15.8946 8.51957 15.7071 8.70711C15.5196 8.89464 15.2652 9 15 9C14.7348 9 14.4804 8.89464 14.2929 8.70711C14.1054 8.51957 14 8.26522 14 8C14 7.73478 14.1054 7.48043 14.2929 7.29289C14.4804 7.10536 14.7348 7 15 7C15.2652 7 15.5196 7.10536 15.7071 7.29289C15.8946 7.48043 16 7.73478 16 8Z" stroke="#D8DFE9" stroke-width="2" stroke-linecap="round" stroke-linejoin="round"/>
</svg>
