<svg width="85" height="19" viewBox="0 0 85 19" fill="none" xmlns="http://www.w3.org/2000/svg">
<path d="M68.8224 18.1851L74.3944 9.6817L69.0889 1.22679H73.1347L76.4779 6.84724L79.8937 1.22679H83.8426L78.5371 9.75438L84.1091 18.1851H80.0149L76.4779 12.5404L72.8439 18.1851H68.8224Z" fill="white"/>
<path d="M62.6238 18.5C61.3317 18.5 60.1769 18.2012 59.1594 17.6036C58.1419 17.0061 57.3425 16.2147 56.7611 15.2295C56.1958 14.2281 55.9131 13.1218 55.9131 11.9105C55.9131 10.6992 56.1958 9.59288 56.7611 8.59154C57.3425 7.59019 58.1419 6.79073 59.1594 6.19316C60.1769 5.59558 61.3317 5.29679 62.6238 5.29679C63.932 5.29679 65.0868 5.59558 66.0881 6.19316C67.1056 6.79073 67.897 7.59019 68.4623 8.59154C69.0437 9.59288 69.3344 10.6992 69.3344 11.9105C69.3344 13.1218 69.0437 14.2281 68.4623 15.2295C67.897 16.2147 67.1056 17.0061 66.0881 17.6036C65.0868 18.2012 63.932 18.5 62.6238 18.5ZM62.6238 15.5202C63.3183 15.5202 63.9239 15.3587 64.4407 15.0357C64.9576 14.6965 65.3532 14.2524 65.6278 13.7032C65.9185 13.1541 66.0639 12.5565 66.0639 11.9105C66.0639 11.2483 65.9185 10.6427 65.6278 10.0936C65.3532 9.54443 64.9576 9.10836 64.4407 8.78535C63.9239 8.44618 63.3183 8.2766 62.6238 8.2766C61.9293 8.2766 61.3236 8.44618 60.8068 8.78535C60.29 9.10836 59.8862 9.54443 59.5955 10.0936C59.321 10.6427 59.1837 11.2483 59.1837 11.9105C59.1837 12.5565 59.321 13.1541 59.5955 13.7032C59.8862 14.2524 60.29 14.6965 60.8068 15.0357C61.3236 15.3587 61.9293 15.5202 62.6238 15.5202Z" fill="white"/>
<path d="M52.7184 4.54576C52.1693 4.54576 51.7009 4.36003 51.3133 3.98856C50.9418 3.60094 50.7561 3.14065 50.7561 2.60768C50.7561 2.09085 50.9418 1.64671 51.3133 1.27524C51.7009 0.887623 52.1693 0.693813 52.7184 0.693813C53.2837 0.693813 53.752 0.887623 54.1235 1.27524C54.495 1.64671 54.6807 2.09085 54.6807 2.60768C54.6807 3.1568 54.495 3.6171 54.1235 3.98856C53.752 4.36003 53.2837 4.54576 52.7184 4.54576ZM51.0953 18.185V5.58748H54.3658V18.185H51.0953Z" fill="white"/>
<path d="M41.7133 18.5C40.5666 18.5 39.5168 18.2093 38.5639 17.6279C37.6272 17.0303 36.8761 16.2389 36.3109 15.2537C35.7617 14.2523 35.4872 13.146 35.4872 11.9347C35.4872 11.0303 35.6487 10.1824 35.9717 9.39098C36.2947 8.58345 36.7389 7.88089 37.3041 7.28331C37.8694 6.66958 38.5235 6.19314 39.2665 5.85397C40.0255 5.49866 40.8411 5.321 41.7133 5.321C42.7954 5.321 43.6433 5.52288 44.257 5.92665C44.8708 6.33042 45.3472 6.86339 45.6864 7.52557V0.500008H48.9569V18.1851H45.7833V16.1258C45.4441 16.8365 44.9596 17.4098 44.3297 17.8459C43.716 18.282 42.8438 18.5 41.7133 18.5ZM42.2463 15.5444C42.973 15.5444 43.5948 15.3829 44.1117 15.0599C44.6446 14.7207 45.0565 14.2766 45.3472 13.7275C45.6379 13.1783 45.7833 12.5807 45.7833 11.9347C45.7833 11.2725 45.6379 10.6669 45.3472 10.1178C45.0565 9.56864 44.6446 9.12449 44.1117 8.78533C43.5948 8.44616 42.973 8.27658 42.2463 8.27658C41.5518 8.27658 40.9381 8.44616 40.4051 8.78533C39.8883 9.10834 39.4845 9.54441 39.1938 10.0935C38.9031 10.6427 38.7577 11.2483 38.7577 11.9105C38.7577 12.5404 38.9031 13.1379 39.1938 13.7032C39.4845 14.2523 39.8883 14.6965 40.4051 15.0357C40.9381 15.3748 41.5518 15.5444 42.2463 15.5444Z" fill="white"/>
<path d="M27.1621 18.4758C26.2577 18.4758 25.4421 18.2658 24.7153 17.8459C23.9885 17.426 23.4151 16.8284 22.9952 16.0532C22.5753 15.2618 22.3653 14.3412 22.3653 13.2914V5.58749H25.6359V12.4919C25.6359 13.574 25.8539 14.3654 26.29 14.8661C26.726 15.3667 27.3478 15.6171 28.1554 15.6171C28.8499 15.6171 29.4555 15.3667 29.9723 14.8661C30.5053 14.3654 30.7718 13.574 30.7718 12.4919V5.58749H34.0423V18.1851H30.8687V16.2954C30.5618 17.0222 30.1096 17.5713 29.512 17.9428C28.9306 18.2981 28.1473 18.4758 27.1621 18.4758Z" fill="white"/>
<path d="M18.7243 18.185C17.4807 18.185 16.5278 17.8782 15.8657 17.2645C15.2035 16.6507 14.8724 15.6575 14.8724 14.2846V8.37348H13.1039V5.58748H14.8724V3.04374L18.1429 2.70458V5.58748H20.8078V8.37348H18.1429V14.1151C18.1429 14.8903 18.4821 15.2779 19.1604 15.2779H20.5171V18.185H18.7243Z" fill="white"/>
<path d="M6.49259 18.5C5.15208 18.5 3.91655 18.2174 2.786 17.6521C1.6716 17.0707 0.742933 16.1339 0 14.8419L2.93136 12.9765C3.36743 13.8486 3.91655 14.4865 4.57873 14.8903C5.24091 15.2779 5.94347 15.4717 6.6864 15.4717C7.47779 15.4717 8.09959 15.2941 8.55181 14.9388C9.00403 14.5834 9.23014 14.1151 9.23014 13.5337C9.23014 12.9684 9.05248 12.5162 8.69717 12.177C8.34185 11.8378 7.8654 11.5633 7.26783 11.3533C6.6864 11.1433 6.04845 10.9495 5.35396 10.7719C4.04576 10.4327 3.00403 9.87551 2.2288 9.10028C1.45357 8.30889 1.06595 7.27525 1.06595 5.99934C1.06595 4.98184 1.31628 4.09355 1.81696 3.33447C2.31763 2.57539 3.01211 1.98588 3.9004 1.56597C4.80484 1.14605 5.85464 0.936089 7.04979 0.936089C8.37415 0.936089 9.48048 1.21065 10.3688 1.75977C11.2571 2.3089 12.0161 3.08413 12.646 4.08548L9.73889 5.87821C9.33512 5.21603 8.9152 4.73151 8.47913 4.42464C8.04306 4.11778 7.51009 3.96435 6.88021 3.96435C6.20188 3.96435 5.6366 4.13393 5.18438 4.4731C4.74831 4.81226 4.53028 5.26448 4.53028 5.82976C4.53028 6.45963 4.78869 6.91993 5.30551 7.21064C5.83849 7.48521 6.47644 7.73554 7.21937 7.96165C7.72005 8.12316 8.27725 8.31697 8.89097 8.54308C9.52085 8.75304 10.1265 9.05183 10.7079 9.43944C11.2894 9.81091 11.7658 10.3116 12.1373 10.9415C12.5087 11.5713 12.6945 12.3708 12.6945 13.3398C12.6945 14.3573 12.4441 15.2537 11.9435 16.0289C11.4428 16.8042 10.7322 17.4098 9.81157 17.8459C8.89097 18.282 7.78465 18.5 6.49259 18.5Z" fill="white"/>
</svg>
