<svg width="337" height="72" viewBox="0 0 337 72" fill="none" xmlns="http://www.w3.org/2000/svg">
<path d="M275.289 70.7394L297.577 36.7259L276.355 2.90625H292.538L305.911 25.3881L319.575 2.90625H335.37L314.148 37.0166L336.436 70.7394H320.059L305.911 48.1606L291.375 70.7394H275.289Z" fill="white"/>
<path d="M250.559 71.6701C245.39 71.6701 240.771 70.4749 236.701 68.0846C232.631 65.6943 229.434 62.5288 227.108 58.588C224.847 54.5826 223.716 50.1573 223.716 45.3121C223.716 40.4669 224.847 36.0416 227.108 32.0362C229.434 28.0308 232.631 24.833 236.701 22.4426C240.771 20.0523 245.39 18.8572 250.559 18.8572C255.792 18.8572 260.411 20.0523 264.416 22.4426C268.486 24.833 271.652 28.0308 273.913 32.0362C276.238 36.0416 277.401 40.4669 277.401 45.3121C277.401 50.1573 276.238 54.5826 273.913 58.588C271.652 62.5288 268.486 65.6943 264.416 68.0846C260.411 70.4749 255.792 71.6701 250.559 71.6701ZM250.559 59.7509C253.337 59.7509 255.759 59.1048 257.827 57.8128C259.894 56.4561 261.477 54.6795 262.575 52.483C263.738 50.2865 264.319 47.8962 264.319 45.3121C264.319 42.6634 263.738 40.2408 262.575 38.0443C261.477 35.8478 259.894 34.1035 257.827 32.8114C255.759 31.4548 253.337 30.7764 250.559 30.7764C247.781 30.7764 245.358 31.4548 243.291 32.8114C241.224 34.1035 239.609 35.8478 238.446 38.0443C237.347 40.2408 236.798 42.6634 236.798 45.3121C236.798 47.8962 237.347 50.2865 238.446 52.483C239.609 54.6795 241.224 56.4561 243.291 57.8128C245.358 59.1048 247.781 59.7509 250.559 59.7509Z" fill="white"/>
<path d="M204.38 70.7375V20.3472H217.462V70.7375H204.38Z" fill="white"/>
<path d="M205.253 13.9556C206.803 15.4415 208.677 16.1844 210.873 16.1844C213.134 16.1844 215.008 15.4415 216.494 13.9556C217.98 12.4698 218.723 10.6286 218.723 8.43207C218.723 6.36477 217.98 4.58819 216.494 3.10232C215.008 1.55185 213.134 0.776611 210.873 0.776611C208.677 0.776611 206.803 1.55185 205.253 3.10232C203.767 4.58819 203.024 6.36477 203.024 8.43207C203.024 10.564 203.767 12.4052 205.253 13.9556Z" fill="#FF3030"/>
<path d="M166.85 72C162.263 72 158.064 70.8371 154.252 68.5114C150.505 66.1211 147.501 62.9556 145.24 59.0148C143.044 55.0094 141.945 50.5841 141.945 45.7389C141.945 42.1211 142.591 38.7295 143.884 35.5639C145.176 32.3338 146.952 29.5235 149.213 27.1332C151.474 24.6783 154.091 22.7725 157.063 21.4159C160.099 19.9946 163.361 19.284 166.85 19.284C171.178 19.284 174.57 20.0915 177.025 21.7066C179.48 23.3217 181.386 25.4536 182.742 28.1023V0H195.824V70.7402H183.13V62.5034C181.773 65.3459 179.835 67.6393 177.316 69.3836C174.861 71.1279 171.372 72 166.85 72ZM168.982 60.1777C171.889 60.1777 174.376 59.5316 176.443 58.2396C178.575 56.8829 180.223 55.1063 181.386 52.9098C182.548 50.7133 183.13 48.323 183.13 45.7389C183.13 43.0902 182.548 40.6676 181.386 38.4711C180.223 36.2746 178.575 34.498 176.443 33.1413C174.376 31.7847 171.889 31.1063 168.982 31.1063C166.204 31.1063 163.749 31.7847 161.617 33.1413C159.55 34.4334 157.935 36.1777 156.772 38.3742C155.609 40.5707 155.028 42.9933 155.028 45.642C155.028 48.1615 155.609 50.5518 156.772 52.8129C157.935 55.0094 159.55 56.786 161.617 58.1427C163.749 59.4993 166.204 60.1777 168.982 60.1777Z" fill="white"/>
<path d="M108.645 71.9003C105.028 71.9003 101.765 71.0605 98.8581 69.3808C95.951 67.7011 93.6576 65.3108 91.9779 62.2099C90.2982 59.0443 89.4584 55.362 89.4584 51.1628V20.3472H102.54V47.9649C102.54 52.2933 103.413 55.4589 105.157 57.4616C106.901 59.4643 109.388 60.4656 112.619 60.4656C115.396 60.4656 117.819 59.4643 119.886 57.4616C122.018 55.4589 123.084 52.2933 123.084 47.9649V20.3472H136.166V70.7375H123.472V63.1789C122.244 66.0861 120.436 68.2826 118.045 69.7684C115.719 71.1897 112.586 71.9003 108.645 71.9003Z" fill="white"/>
<path d="M74.8953 70.7379C69.9209 70.7379 66.1093 69.5104 63.4606 67.0555C60.8118 64.6006 59.4875 60.6275 59.4875 55.1362V31.4916H52.4135V20.3475H59.4875V10.1726L72.5696 8.81592V20.3475H83.2291V31.4916H72.5696V54.4579C72.5696 57.5589 73.9262 59.1093 76.6396 59.1093H82.0662V70.7379H74.8953Z" fill="white"/>
<path d="M25.9704 71.9967C20.6083 71.9967 15.6662 70.8661 11.144 68.605C6.68641 66.2793 2.97174 62.5323 0 57.3641L11.7254 49.9025C13.4697 53.391 15.6662 55.9428 18.3149 57.5579C20.9637 59.1084 23.7739 59.8836 26.7456 59.8836C29.9112 59.8836 32.3984 59.173 34.2073 57.7517C36.0162 56.3305 36.9206 54.457 36.9206 52.1313C36.9206 49.8702 36.21 48.0613 34.7887 46.7046C33.3674 45.348 31.4616 44.2497 29.0713 43.4099C26.7456 42.57 24.1938 41.7948 21.4159 41.0842C16.183 39.7275 12.0162 37.4987 8.91521 34.3978C5.81427 31.2322 4.2638 27.0976 4.2638 21.994C4.2638 17.924 5.26514 14.3708 7.26783 11.3345C9.27052 8.29816 12.0485 5.94015 15.6016 4.26048C19.2194 2.5808 23.4186 1.74097 28.1992 1.74097C33.4966 1.74097 37.9219 2.83921 41.4751 5.03571C45.0283 7.23221 48.0646 10.3332 50.5841 14.3385L38.9556 21.5095C37.3405 18.8607 35.6608 16.9227 33.9166 15.6952C32.1723 14.4677 30.0404 13.854 27.5209 13.854C24.8075 13.854 22.5464 14.5323 20.7376 15.889C18.9933 17.2457 18.1211 19.0546 18.1211 21.3157C18.1211 23.8352 19.1548 25.6764 21.2221 26.8392C23.354 27.9375 25.9058 28.9388 28.8775 29.8432C30.8802 30.4893 33.109 31.2645 35.5639 32.169C38.0834 33.0088 40.5061 34.2039 42.8318 35.7544C45.1575 37.2403 47.0633 39.243 48.5491 41.7625C50.035 44.282 50.7779 47.4799 50.7779 51.356C50.7779 55.426 49.7766 59.0115 47.7739 62.1124C45.7712 65.2134 42.9287 67.636 39.2463 69.3803C35.5639 71.1245 31.1386 71.9967 25.9704 71.9967Z" fill="white"/>
</svg>
