<svg width="24" height="24" viewBox="0 0 24 24" fill="none" xmlns="http://www.w3.org/2000/svg">
<path d="M14 12C14 12.55 13.8083 13.025 13.425 13.425C13.0417 13.8083 12.5667 14 12 14C11.45 14 10.975 13.8083 10.575 13.425C10.1917 13.025 10 12.55 10 12C10 11.4333 10.1917 10.9583 10.575 10.575C10.975 10.1917 11.45 10 12 10C12.5667 10 13.0417 10.1917 13.425 10.575C13.8083 10.9583 14 11.4333 14 12ZM14 5C14 5.55 13.8083 6.025 13.425 6.425C13.0417 6.80833 12.5667 7 12 7C11.45 7 10.975 6.80833 10.575 6.425C10.1917 6.025 10 5.55 10 5C10 4.43333 10.1917 3.95833 10.575 3.575C10.975 3.19167 11.45 3 12 3C12.5667 3 13.0417 3.19167 13.425 3.575C13.8083 3.95833 14 4.43333 14 5ZM14 19C14 19.55 13.8083 20.025 13.425 20.425C13.0417 20.8083 12.5667 21 12 21C11.45 21 10.975 20.8083 10.575 20.425C10.1917 20.025 10 19.55 10 19C10 18.4333 10.1917 17.9583 10.575 17.575C10.975 17.1917 11.45 17 12 17C12.5667 17 13.0417 17.1917 13.425 17.575C13.8083 17.9583 14 18.4333 14 19Z" fill="#808A9D"/>
</svg>
