<svg width="24" height="24" viewBox="0 0 24 24" fill="none" xmlns="http://www.w3.org/2000/svg">
<path d="M4 13C3.58333 13 3.29167 12.8333 3.125 12.5C2.975 12.1667 2.975 11.8333 3.125 11.5C3.29167 11.1667 3.58333 11 4 11H20C20.4167 11 20.7 11.1667 20.85 11.5C21.0167 11.8333 21.0167 12.1667 20.85 12.5C20.7 12.8333 20.4167 13 20 13H4ZM4 6C3.58333 6 3.29167 5.83333 3.125 5.5C2.975 5.16667 2.975 4.83333 3.125 4.5C3.29167 4.16667 3.58333 4 4 4H20C20.4167 4 20.7 4.16667 20.85 4.5C21.0167 4.83333 21.0167 5.16667 20.85 5.5C20.7 5.83333 20.4167 6 20 6H4ZM4 20C3.58333 20 3.29167 19.8333 3.125 19.5C2.975 19.1667 2.975 18.8333 3.125 18.5C3.29167 18.1667 3.58333 18 4 18H20C20.4167 18 20.7 18.1667 20.85 18.5C21.0167 18.8333 21.0167 19.1667 20.85 19.5C20.7 19.8333 20.4167 20 20 20H4Z" fill="#808A9D"/>
</svg>
