<svg width="18" height="18" viewBox="0 0 18 18" fill="none" xmlns="http://www.w3.org/2000/svg">
<path d="M1.48555 17.9546C1.20224 18.0333 0.934672 18.0097 0.682843 17.8838C0.431015 17.7579 0.242143 17.569 0.116229 17.3172C-0.00968575 17.0653 -0.0332947 16.7978 0.0454018 16.5145L0.942542 12.8787L12.9831 0.861726C13.3608 0.483983 13.7937 0.232155 14.2816 0.106241C14.7695 -0.0354135 15.2574 -0.0354135 15.7453 0.106241C16.2333 0.232155 16.6661 0.483983 17.0438 0.861726L17.1383 0.956162C17.516 1.33391 17.7678 1.76674 17.8938 2.25465C18.0354 2.74257 18.0354 3.23049 17.8938 3.71841C17.7678 4.20633 17.516 4.63916 17.1383 5.0169L5.12132 17.0575L1.48555 17.9546ZM1.86329 17.0102C1.87903 16.963 1.87903 16.8922 1.86329 16.7978C1.86329 16.7033 1.84755 16.5853 1.81607 16.4436C1.78459 16.2862 1.73738 16.1288 1.67442 15.9714L4.12975 15.3576L15.8162 3.6948C16.068 3.44297 16.1939 3.20688 16.1939 2.98653C16.1939 2.76618 16.068 2.53009 15.8162 2.27826L15.7217 2.18383C15.4699 1.932 15.2338 1.80608 15.0135 1.80608C14.7931 1.80608 14.557 1.932 14.3052 2.18383L2.64239 13.8703L1.86329 17.0102ZM11.5193 3.64758L12.8414 2.32548L15.6745 5.15855L14.3524 6.48065L11.5193 3.64758Z" fill="#F1F4F8"/>
</svg>
