<svg width="12" height="12" viewBox="0 0 12 12" fill="none" xmlns="http://www.w3.org/2000/svg">
<path d="M0.990365 11.9697C0.801493 12.0222 0.623115 12.0065 0.455229 11.9225C0.287343 11.8386 0.161429 11.7127 0.0774858 11.5448C-0.00645716 11.3769 -0.0221964 11.1985 0.0302679 11.0096L0.628361 8.58578L8.6554 0.574484C8.90723 0.322655 9.19578 0.15477 9.52106 0.0708271C9.84634 -0.023609 10.1716 -0.023609 10.4969 0.0708271C10.8222 0.15477 11.1107 0.322655 11.3626 0.574484L11.4255 0.637441C11.6773 0.88927 11.8452 1.17782 11.9292 1.5031C12.0236 1.82838 12.0236 2.15366 11.9292 2.47894C11.8452 2.80422 11.6773 3.09277 11.4255 3.3446L3.41422 11.3716L0.990365 11.9697ZM1.24219 11.3402C1.25269 11.3087 1.25269 11.2615 1.24219 11.1985C1.24219 11.1355 1.2317 11.0569 1.21071 10.9624C1.18973 10.8575 1.15825 10.7526 1.11628 10.6476L2.75317 10.2384L10.5441 2.4632C10.712 2.29531 10.7959 2.13792 10.7959 1.99102C10.7959 1.84412 10.712 1.68673 10.5441 1.51884L10.4812 1.45588C10.3133 1.288 10.1559 1.20406 10.009 1.20406C9.86208 1.20406 9.70469 1.288 9.5368 1.45588L1.76159 9.24683L1.24219 11.3402ZM7.67956 2.43172L8.56096 1.55032L10.4497 3.43904L9.56828 4.32044L7.67956 2.43172Z" fill="#D8DFE9"/>
</svg>
