<svg width="28" height="28" viewBox="0 0 28 28" fill="none" xmlns="http://www.w3.org/2000/svg">
<path d="M8.63324 23.5671C7.46657 23.5671 6.54879 23.2404 5.8799 22.5871C5.22657 21.9182 4.8999 21.0004 4.8999 19.8337V19.7404C4.8999 18.8226 5.32768 18.0215 6.18324 17.3371C7.03879 16.6371 8.17435 16.1004 9.5899 15.7271C11.0055 15.3537 12.5532 15.1671 14.2332 15.1671C15.9132 15.1671 17.461 15.3537 18.8766 15.7271C20.2921 16.1004 21.4277 16.6371 22.2832 17.3371C23.1388 18.0215 23.5666 18.8226 23.5666 19.7404V19.8337C23.5666 21.0004 23.2321 21.9182 22.5632 22.5871C21.9099 23.2404 20.9999 23.5671 19.8332 23.5671H8.63324ZM6.76657 19.8337C6.76657 20.5493 6.89879 21.0393 7.16324 21.3037C7.42768 21.5682 7.91768 21.7004 8.63324 21.7004H19.8332C20.5488 21.7004 21.0388 21.5682 21.3032 21.3037C21.5677 21.0393 21.6999 20.5493 21.6999 19.8337V19.7404C21.6999 19.2582 21.381 18.8071 20.7432 18.3871C20.1055 17.9671 19.2188 17.6404 18.0832 17.4071C16.9632 17.1582 15.6799 17.0337 14.2332 17.0337C12.8021 17.0337 11.5188 17.1582 10.3832 17.4071C9.24768 17.6404 8.36101 17.9671 7.72324 18.3871C7.08546 18.8071 6.76657 19.2582 6.76657 19.7404V19.8337ZM14.2332 14.2337C13.3777 14.2337 12.5921 14.0237 11.8766 13.6037C11.1766 13.1837 10.6166 12.6237 10.1966 11.9237C9.77657 11.2082 9.56657 10.4226 9.56657 9.56706C9.56657 8.7115 9.77657 7.92595 10.1966 7.21039C10.6166 6.49483 11.1766 5.93483 11.8766 5.53039C12.5921 5.11039 13.3777 4.90039 14.2332 4.90039C15.0888 4.90039 15.8743 5.11039 16.5899 5.53039C17.3055 5.93483 17.8655 6.49483 18.2699 7.21039C18.6899 7.92595 18.8999 8.7115 18.8999 9.56706C18.8999 10.4226 18.6899 11.2082 18.2699 11.9237C17.8655 12.6237 17.3055 13.1837 16.5899 13.6037C15.8743 14.0237 15.0888 14.2337 14.2332 14.2337ZM14.2332 12.3671C14.7932 12.3671 15.2832 12.2504 15.7032 12.0171C16.1232 11.7837 16.4499 11.4571 16.6832 11.0371C16.9166 10.6171 17.0332 10.1271 17.0332 9.56706C17.0332 9.00706 16.9166 8.51706 16.6832 8.09706C16.4499 7.67706 16.1232 7.35039 15.7032 7.11706C15.2832 6.88372 14.7932 6.76706 14.2332 6.76706C13.6732 6.76706 13.1832 6.88372 12.7632 7.11706C12.3432 7.35039 12.0166 7.67706 11.7832 8.09706C11.5499 8.51706 11.4332 9.00706 11.4332 9.56706C11.4332 10.1271 11.5499 10.6171 11.7832 11.0371C12.0166 11.4571 12.3432 11.7837 12.7632 12.0171C13.1832 12.2504 13.6732 12.3671 14.2332 12.3671Z" fill="#808A9D"/>
</svg>
