<svg width="19" height="19" viewBox="0 0 19 19" fill="none" xmlns="http://www.w3.org/2000/svg">
<path d="M3.73333 18.6667C2.56667 18.6667 1.64889 18.34 0.98 17.6867C0.326667 17.0178 0 16.1 0 14.9333V14.84C0 13.9222 0.427778 13.1211 1.28333 12.4367C2.13889 11.7367 3.27444 11.2 4.69 10.8267C6.10556 10.4533 7.65333 10.2667 9.33333 10.2667C11.0133 10.2667 12.5611 10.4533 13.9767 10.8267C15.3922 11.2 16.5278 11.7367 17.3833 12.4367C18.2389 13.1211 18.6667 13.9222 18.6667 14.84V14.9333C18.6667 16.1 18.3322 17.0178 17.6633 17.6867C17.01 18.34 16.1 18.6667 14.9333 18.6667H3.73333ZM1.86667 14.9333C1.86667 15.6489 1.99889 16.1389 2.26333 16.4033C2.52778 16.6678 3.01778 16.8 3.73333 16.8H14.9333C15.6489 16.8 16.1389 16.6678 16.4033 16.4033C16.6678 16.1389 16.8 15.6489 16.8 14.9333V14.84C16.8 14.3578 16.4811 13.9067 15.8433 13.4867C15.2056 13.0667 14.3189 12.74 13.1833 12.5067C12.0633 12.2578 10.78 12.1333 9.33333 12.1333C7.90222 12.1333 6.61889 12.2578 5.48333 12.5067C4.34778 12.74 3.46111 13.0667 2.82333 13.4867C2.18556 13.9067 1.86667 14.3578 1.86667 14.84V14.9333ZM9.33333 9.33333C8.47778 9.33333 7.69222 9.12333 6.97667 8.70333C6.27667 8.28333 5.71667 7.72333 5.29667 7.02333C4.87667 6.30778 4.66667 5.52222 4.66667 4.66667C4.66667 3.81111 4.87667 3.02555 5.29667 2.31C5.71667 1.59444 6.27667 1.03444 6.97667 0.63C7.69222 0.21 8.47778 0 9.33333 0C10.1889 0 10.9744 0.21 11.69 0.63C12.4056 1.03444 12.9656 1.59444 13.37 2.31C13.79 3.02555 14 3.81111 14 4.66667C14 5.52222 13.79 6.30778 13.37 7.02333C12.9656 7.72333 12.4056 8.28333 11.69 8.70333C10.9744 9.12333 10.1889 9.33333 9.33333 9.33333ZM9.33333 7.46667C9.89333 7.46667 10.3833 7.35 10.8033 7.11667C11.2233 6.88333 11.55 6.55667 11.7833 6.13667C12.0167 5.71667 12.1333 5.22667 12.1333 4.66667C12.1333 4.10667 12.0167 3.61667 11.7833 3.19667C11.55 2.77667 11.2233 2.45 10.8033 2.21667C10.3833 1.98333 9.89333 1.86667 9.33333 1.86667C8.77333 1.86667 8.28333 1.98333 7.86333 2.21667C7.44333 2.45 7.11667 2.77667 6.88333 3.19667C6.65 3.61667 6.53333 4.10667 6.53333 4.66667C6.53333 5.22667 6.65 5.71667 6.88333 6.13667C7.11667 6.55667 7.44333 6.88333 7.86333 7.11667C8.28333 7.35 8.77333 7.46667 9.33333 7.46667Z" fill="#808A9D"/>
</svg>
