<svg width="28" height="28" viewBox="0 0 28 28" fill="none" xmlns="http://www.w3.org/2000/svg">
<path d="M14 23.8002C12.236 23.8002 10.6026 23.3592 9.09995 22.4772C7.59728 21.5952 6.40495 20.4029 5.52295 18.9002C4.64095 17.3975 4.19995 15.7642 4.19995 14.0002C4.19995 12.2362 4.64095 10.6029 5.52295 9.10019C6.40495 7.58119 7.59728 6.38886 9.09995 5.52319C10.6026 4.6412 12.236 4.2002 14 4.2002C15.764 4.2002 17.3973 4.6412 18.9 5.52319C20.419 6.38886 21.6113 7.58119 22.477 9.10019C23.359 10.6029 23.8 12.2362 23.8 14.0002C23.8 15.7642 23.359 17.3975 22.477 18.9002C21.6113 20.4029 20.419 21.5952 18.9 22.4772C17.3973 23.3592 15.764 23.8002 14 23.8002ZM14 21.8402C15.4536 21.8402 16.7766 21.4972 17.969 20.8112C19.1776 20.1252 20.125 19.186 20.811 17.9937C21.497 16.785 21.84 15.4539 21.84 14.0002C21.84 12.5465 21.497 11.2235 20.811 10.0312C20.125 8.82253 19.1776 7.87519 17.969 7.18919C16.7766 6.50319 15.4536 6.16019 14 6.16019C12.5463 6.16019 11.2151 6.50319 10.0065 7.18919C8.81412 7.87519 7.87495 8.82253 7.18895 10.0312C6.50295 11.2235 6.15995 12.5465 6.15995 14.0002C6.15995 15.4539 6.50295 16.785 7.18895 17.9937C7.87495 19.186 8.81412 20.1252 10.0065 20.8112C11.2151 21.4972 12.5463 21.8402 14 21.8402ZM17.577 12.9467C17.8546 13.11 18.0506 13.3305 18.165 13.6082C18.2793 13.8695 18.2793 14.139 18.165 14.4167C18.0506 14.678 17.8546 14.8904 17.577 15.0537L12.4075 18.0182C12.1135 18.1815 11.8276 18.2387 11.55 18.1897C11.2723 18.1407 11.0355 18.0019 10.8395 17.7732C10.6598 17.5445 10.57 17.2669 10.57 16.9402V11.0602C10.57 10.7172 10.6598 10.4395 10.8395 10.2272C11.0355 9.99853 11.2723 9.8597 11.55 9.8107C11.8276 9.74536 12.1135 9.80253 12.4075 9.9822L17.577 12.9467Z" fill="#626B7F"/>
</svg>
