<svg width="16" height="16" viewBox="0 0 16 16" fill="none" xmlns="http://www.w3.org/2000/svg">
<path d="M0.87961 8.88518C0.508467 8.88518 0.248666 8.73672 0.100209 8.43981C-0.0334029 8.14289 -0.0334029 7.84598 0.100209 7.54906C0.248666 7.25215 0.508467 7.10369 0.87961 7.10369H15.1315C15.5027 7.10369 15.755 7.25215 15.8887 7.54906C16.0371 7.84598 16.0371 8.14289 15.8887 8.43981C15.755 8.73672 15.5027 8.88518 15.1315 8.88518H0.87961ZM7.11482 0.868476C7.11482 0.497332 7.26328 0.244955 7.5602 0.111343C7.85711 -0.0371144 8.15403 -0.0371144 8.45094 0.111343C8.74786 0.244955 8.89631 0.497332 8.89631 0.868476V15.1204C8.89631 15.4915 8.74786 15.7513 8.45094 15.8998C8.15403 16.0334 7.85711 16.0334 7.5602 15.8998C7.26328 15.7513 7.11482 15.4915 7.11482 15.1204V0.868476Z" fill="white"/>
</svg>
