<svg width="24" height="24" viewBox="0 0 24 24" fill="none" xmlns="http://www.w3.org/2000/svg">
<path d="M3.98956 12.9958C3.57202 12.9958 3.27975 12.8288 3.11273 12.4948C2.96242 12.1608 2.96242 11.8267 3.11273 11.4927C3.27975 11.1587 3.57202 10.9916 3.98956 10.9916H20.023C20.4405 10.9916 20.7244 11.1587 20.8747 11.4927C21.0418 11.8267 21.0418 12.1608 20.8747 12.4948C20.7244 12.8288 20.4405 12.9958 20.023 12.9958H3.98956ZM11.0042 3.97704C11.0042 3.5595 11.1712 3.27557 11.5052 3.12526C11.8392 2.95825 12.1733 2.95825 12.5073 3.12526C12.8413 3.27557 13.0084 3.5595 13.0084 3.97704V20.0104C13.0084 20.428 12.8413 20.7202 12.5073 20.8873C12.1733 21.0376 11.8392 21.0376 11.5052 20.8873C11.1712 20.7202 11.0042 20.428 11.0042 20.0104V3.97704Z" fill="#A9B4C6"/>
</svg>
