<svg width="24" height="24" viewBox="0 0 24 24" fill="none" xmlns="http://www.w3.org/2000/svg">
<path d="M17.999 3C18.1168 2.99991 18.2329 3.02757 18.3381 3.08074C18.4432 3.1339 18.5343 3.21107 18.604 3.306L18.659 3.393L21.922 9.421L21.96 9.514L21.972 9.554L21.992 9.656L21.998 9.75C21.9975 9.81754 21.9884 9.88474 21.971 9.95L21.924 10.075L21.886 10.144C21.8632 10.1796 21.8381 10.2136 21.811 10.246L21.871 10.168L21.846 10.203L12.596 20.708C12.5201 20.811 12.4173 20.8913 12.299 20.94L12.201 20.973L12.123 20.99L12 21L11.9 20.994L11.782 20.968C11.7208 20.9507 11.6623 20.9251 11.608 20.892L11.599 20.885C11.5517 20.8556 11.508 20.8207 11.469 20.781L2.179 10.235L2.153 10.203L2.113 10.144C2.05648 10.0524 2.02033 9.94978 2.007 9.843L2 9.75L2.003 9.684L2.016 9.595L2.04 9.509L2.062 9.45L2.09 9.393L5.34 3.393C5.39603 3.28946 5.47565 3.20056 5.57242 3.1335C5.66918 3.06644 5.78038 3.02311 5.897 3.007L5.999 3H17.999ZM14.997 10.5H8.998L11.998 18.187L14.997 10.5ZM7.389 10.5H4.409L9.76 16.574L7.389 10.5ZM19.587 10.5H16.608L14.24 16.57L19.587 10.5ZM8.971 4.5H6.445L4.007 9H7.531L8.971 4.5ZM13.451 4.5H10.546L9.105 9H14.89L13.451 4.5ZM17.551 4.5H15.026L16.466 9H19.988L17.551 4.5Z" fill="white"/>
</svg>
