<svg width="20" height="20" viewBox="0 0 20 20" fill="none" xmlns="http://www.w3.org/2000/svg">
<path d="M9.16667 16.25C7.88889 16.25 6.70139 15.9375 5.60417 15.3125C4.52083 14.6736 3.65972 13.8125 3.02083 12.7292C2.39583 11.6319 2.08333 10.4444 2.08333 9.16667C2.08333 7.88889 2.39583 6.70833 3.02083 5.625C3.65972 4.52778 4.52083 3.66667 5.60417 3.04167C6.70139 2.40278 7.88889 2.08333 9.16667 2.08333C10.4444 2.08333 11.625 2.40278 12.7083 3.04167C13.8056 3.66667 14.6667 4.52778 15.2917 5.625C15.9306 6.70833 16.25 7.88889 16.25 9.16667C16.25 10.4444 15.9306 11.6319 15.2917 12.7292C14.6667 13.8125 13.8056 14.6736 12.7083 15.3125C11.625 15.9375 10.4444 16.25 9.16667 16.25ZM9.16667 14.5833C10.1944 14.5833 11.1181 14.3542 11.9375 13.8958C12.7708 13.4236 13.4167 12.7778 13.875 11.9583C14.3472 11.125 14.5833 10.1944 14.5833 9.16667C14.5833 8.13889 14.3472 7.21528 13.875 6.39583C13.4167 5.5625 12.7708 4.91667 11.9375 4.45833C11.1181 3.98611 10.1944 3.75 9.16667 3.75C8.13889 3.75 7.20833 3.98611 6.375 4.45833C5.55556 4.91667 4.90972 5.5625 4.4375 6.39583C3.97917 7.21528 3.75 8.13889 3.75 9.16667C3.75 10.1944 3.97917 11.125 4.4375 11.9583C4.90972 12.7778 5.55556 13.4236 6.375 13.8958C7.20833 14.3542 8.13889 14.5833 9.16667 14.5833ZM12.5625 13.75L13.75 12.5625L17.25 16.0833C17.4861 16.3194 17.5556 16.5833 17.4583 16.875C17.3611 17.1667 17.1667 17.3681 16.875 17.4792C16.5972 17.5764 16.3333 17.5 16.0833 17.25L12.5625 13.75Z" fill="#A9B4C6"/>
</svg>
