<svg width="24" height="24" viewBox="0 0 24 24" fill="none" xmlns="http://www.w3.org/2000/svg">
<path d="M10.8089 12.9833C10.9922 13.25 11.0839 13.4 11.0839 13.4333L13.6839 18.5333C13.6505 18.6333 13.6422 18.7083 13.6589 18.7583C13.6755 18.7917 13.6922 18.8167 13.7089 18.8333C13.7422 18.8333 13.7672 18.8167 13.7839 18.7833L18.5839 5.38333C18.6839 5.35 18.7255 5.31666 18.7089 5.28333C18.7089 5.23333 18.6839 5.21666 18.6339 5.23333L5.35886 9.85833C5.27552 9.80833 5.23386 9.80833 5.23386 9.85833C5.23386 9.89166 5.26719 9.89166 5.33386 9.85833L10.8089 12.9833ZM4.38386 11.6083C3.90052 11.3417 3.58386 10.9583 3.43386 10.4583C3.30052 9.95833 3.34219 9.475 3.55886 9.00833C3.79219 8.525 4.16719 8.18333 4.68386 7.98333L17.9589 3.35833C18.4922 3.19166 18.9922 3.21666 19.4589 3.43333C19.9255 3.63333 20.2589 3.975 20.4589 4.45833C20.6755 4.925 20.7005 5.41666 20.5339 5.93333L15.6589 19.4333C15.4589 19.9667 15.1172 20.3417 14.6339 20.5583C14.1505 20.775 13.6505 20.8083 13.1339 20.6583C12.6339 20.4917 12.2589 20.15 12.0089 19.6333L9.98386 15.6833C9.41719 14.55 9.18386 14.0583 9.28386 14.2083C9.36719 14.3917 9.43386 14.5083 9.48386 14.5583L4.38386 11.6083Z" fill="#A9B4C6"/>
</svg>
