<svg width="24" height="24" viewBox="0 0 24 24" fill="none" xmlns="http://www.w3.org/2000/svg">
<mask id="mask0_1343_1377" style="mask-type:luminance" maskUnits="userSpaceOnUse" x="1" y="1" width="22" height="22">
<path d="M12 15C13.6569 15 15 13.6569 15 12C15 10.3431 13.6569 9 12 9C10.3431 9 9 10.3431 9 12C9 13.6569 10.3431 15 12 15Z" fill="white"/>
<path d="M2 12C3.72 8.17 7.53 5.5 12 5.5C16.47 5.5 20.28 8.17 22 12C20.28 15.83 16.47 18.5 12 18.5C7.53 18.5 3.72 15.83 2 12Z" stroke="white" stroke-width="2" stroke-linecap="round" stroke-linejoin="round"/>
<path d="M4.2218 2.80762L21.1924 19.7782" stroke="black" stroke-width="2" stroke-linecap="round" stroke-linejoin="round"/>
<path d="M2.80762 4.22192L19.7782 21.1925" stroke="white" stroke-width="2" stroke-linecap="round" stroke-linejoin="round"/>
</mask>
<g mask="url(#mask0_1343_1377)">
<path d="M24 0H0V24H24V0Z" fill="#626B7F"/>
</g>
</svg>
